{"title":"Django Unchained (2012) UHD 4K Upscaled x264 AC3 Soup","uid":13566719,"size":15839713384,"categoryP":"video","categoryS":"hd___movies","magnet":"?xt=urn:btih:2abeb8dfc499c19c46ffab2a195693beda015b20&amp;dn=Django+Unchained+%282012%29+UHD+4K+Upscaled+x264+AC3+Soup&amp;tr=udp%3A%2F%2Ftracker.leechers-paradise.org%3A6969&amp;tr=udp%3A%2F%2Fzer0day.ch%3A1337&amp;tr=udp%3A%2F%2Fopen.demonii.com%3A1337&amp;tr=udp%3A%2F%2Ftracker.coppersurfer.tk%3A6969&amp;tr=udp%3A%2F%2Fexodus.desync.com%3A6969","seeders":12,"leechers":8,"uploader":"peaSoup","files":3,"time":1455630015,"description":"Storyline\r\n\r\nFormer dentist, Dr. King Schultz, buys the freedom of a slave, Django, and trains him with the intent to make him his deputy bounty hunter. Instead, he is led to the site of Django's wife who is under the hands of Calvin Candie, a ruthless plantation owner.\r\n \nhttp://extraimago.com/images/2016/02/16/vlcsnap-2016-02-16-10h50m24s799.jpg \nhttp://extraimago.com/images/2016/02/16/vlcsnap-2016-02-16-10h51m02s002.jpg \nhttp://extraimago.com/images/2016/02/16/vlcsnap-2016-02-16-10h51m41s949.jpg \nhttp://extraimago.com/images/2016/02/16/vlcsnap-2016-02-16-10h56m08s460.jpg \nhttp://extraimago.com/images/2016/02/16/vlcsnap-2016-02-16-11h01m41s634.jpg\r\n\r\nGeneral\r\nFormat                      : Matroska\r\nFormat version              : Version 2\r\nFile size                   : 14.8 GiB\r\nDuration                    : 2h 45mn\r\nOverall bit rate            : 12.8 Mbps\r\nMovie name                  : Django Unchained (2012) UHD 4K Upscaled x264 AC3 Soup\r\nEncoded date                : UTC 2016-02-16 04:21:35\r\nWriting application         : DVDFab 9.2.2.8\r\nWriting library             : libebml v0.7.8 + libmatroska v0.8.1\r\n\r\nVideo\r\nID                          : 1\r\nFormat                      : AVC\r\nFormat/Info                 : Advanced Video Codec\r\nFormat profile              :   \r\nFormat settings, CABAC      : Yes\r\nFormat settings, ReFrames   : 1 frame\r\nCodec ID                    : V_MPEG4/ISO/AVC\r\nDuration                    : 2h 45mn\r\nBit rate                    : 12.1 Mbps\r\nWidth                       : 3 840 pixels\r\nHeight                      : 2 160 pixels\r\nDisplay aspect ratio        : 16:9\r\nFrame rate mode             : Constant\r\nFrame rate                  : 23.976 (24000/1001) fps\r\nColor space                 : YUV\r\nChroma subsampling          : 4:2:0\r\nBit depth                   : 8 bits\r\nScan type                   : Progressive\r\nBits/(Pixel*Frame)          : 0.061\r\nStream size                 : 13.7 GiB (93%)\r\nWriting library             : x264 core 142\r\n\r\nDefault                     : Yes\r\nForced                      : No\r\nColor range                 : Limited\r\nColor primaries             : BT.709\r\nTransfer characteristics    : BT.709\r\nMatrix coefficients         : BT.709\r\n\r\nAudio\r\nID                          : 2\r\nFormat                      : AC-3\r\nFormat/Info                 : Audio Coding 3\r\nMode extension              : CM (complete main)\r\nFormat settings, Endianness : Big\r\nCodec ID                    : A_AC3\r\nDuration                    : 2h 45mn\r\nBit rate mode               : Constant\r\nBit rate                    : 640 Kbps\r\nChannel(s)                  : 6 channels\r\nChannel positions           : Front: L C R, Side: L R, LFE\r\nSampling rate               : 48.0 KHz\r\nFrame rate                  : 31.250 fps (1536 spf)\r\nCompression mode            : Lossy\r\nStream size                 : 757 MiB (5%)\r\nLanguage                    : English\r\nDefault                     : No\r\nForced                      : No","torrent":{"xt":"urn:btih:2abeb8dfc499c19c46ffab2a195693beda015b20","amp;dn":"Django+Unchained+%282012%29+UHD+4K+Upscaled+x264+AC3+Soup","amp;tr":["udp%3A%2F%2Ftracker.leechers-paradise.org%3A6969","udp%3A%2F%2Fzer0day.ch%3A1337","udp%3A%2F%2Fopen.demonii.com%3A1337","udp%3A%2F%2Ftracker.coppersurfer.tk%3A6969","udp%3A%2F%2Fexodus.desync.com%3A6969"],"infoHash":"2abeb8dfc499c19c46ffab2a195693beda015b20","infoHashBuffer":{"type":"Buffer","data":[42,190,184,223,196,153,193,156,70,255,171,42,25,86,147,190,218,1,91,32]},"announce":[],"urlList":[]}}